<svg width="118" height="27" viewBox="0 0 118 27" fill="none" xmlns="http://www.w3.org/2000/svg">
<rect width="92" height="25" rx="7.36884" fill="#CFCFCF"/>
<path d="M13.8521 19H11.9595L14.1675 8.71533H10.4155L10.7559 7.02197H20.144L19.8037 8.71533H16.0518L13.8521 19ZM18.7163 19L20.6421 9.96045H22.3687L22.1196 11.1475H22.2607C22.8197 10.2565 23.6027 9.81104 24.6099 9.81104C25.1134 9.81104 25.4787 9.86084 25.7056 9.96045L25.332 11.7036C24.9779 11.5929 24.5711 11.5376 24.1118 11.5376C23.4367 11.5376 22.8944 11.723 22.4849 12.0938C22.0809 12.4645 21.7931 13.0373 21.6216 13.812L20.5176 19H18.7163ZM28.9844 17.6636C29.5931 17.6636 30.1326 17.4893 30.603 17.1406C31.0789 16.7865 31.3778 16.3438 31.4995 15.8125L31.707 14.8828L29.5073 14.9824C28.8433 15.0101 28.3231 15.154 27.9468 15.4141C27.576 15.6686 27.3906 16.0062 27.3906 16.4268C27.3906 16.7865 27.5373 17.0825 27.8306 17.3149C28.1294 17.5474 28.514 17.6636 28.9844 17.6636ZM28.3286 19.1494C27.5483 19.1494 26.8981 18.9142 26.3779 18.4438C25.8577 17.9679 25.5977 17.3758 25.5977 16.6675C25.5977 15.7655 25.938 15.0516 26.6187 14.5259C27.3049 14.0002 28.276 13.7152 29.5322 13.6709L31.981 13.5713L32.1055 12.9819C32.1387 12.8104 32.1553 12.6831 32.1553 12.6001C32.1553 12.2072 31.9976 11.9001 31.6821 11.6787C31.3667 11.4518 30.9323 11.3384 30.3789 11.3384C29.9196 11.3384 29.5295 11.4242 29.2085 11.5957C28.8931 11.7617 28.6689 12.0052 28.5361 12.3262H26.7515C26.9451 11.5459 27.3823 10.9289 28.063 10.4751C28.7437 10.0158 29.5627 9.78613 30.52 9.78613C31.5493 9.78613 32.3766 10.0241 33.002 10.5C33.6273 10.9704 33.9399 11.5957 33.9399 12.376C33.9399 12.6305 33.915 12.874 33.8652 13.1064L32.6201 19H30.8853L31.1343 17.8462H30.9932C30.6943 18.2502 30.3097 18.5684 29.8394 18.8008C29.369 19.0332 28.8654 19.1494 28.3286 19.1494ZM35.0938 19L37.0112 9.96045H38.7461L38.4556 11.3467H38.5884C39.2746 10.3229 40.1904 9.81104 41.3359 9.81104C42.1715 9.81104 42.8384 10.0684 43.3364 10.583C43.8345 11.0977 44.0835 11.734 44.0835 12.4922C44.0835 12.8076 44.0448 13.159 43.9673 13.5464L42.8135 19H41.0122L42.1079 13.8618C42.1743 13.563 42.2075 13.2974 42.2075 13.0649C42.2075 12.5669 42.0553 12.1685 41.751 11.8696C41.4521 11.5708 41.0316 11.4214 40.4893 11.4214C39.8695 11.4214 39.3438 11.6206 38.9121 12.019C38.486 12.4175 38.201 12.9349 38.0571 13.5713L36.895 19H35.0938ZM45.3369 16.5015H47.1216C47.2212 16.8667 47.4425 17.1628 47.7856 17.3896C48.1343 17.6165 48.5632 17.73 49.0723 17.73C49.6312 17.73 50.085 17.6193 50.4336 17.3979C50.7822 17.1711 50.9565 16.8778 50.9565 16.5181C50.9565 16.2746 50.8763 16.0671 50.7158 15.8955C50.5553 15.7184 50.2842 15.569 49.9023 15.4473L48.5161 14.9824C47.8022 14.7445 47.271 14.4346 46.9224 14.0527C46.5793 13.6654 46.4077 13.1756 46.4077 12.5835C46.4077 11.7534 46.737 11.0811 47.3955 10.5664C48.054 10.0462 48.8952 9.78613 49.9189 9.78613C50.915 9.78613 51.7257 10.0186 52.3511 10.4834C52.9764 10.9482 53.3389 11.5708 53.4385 12.3511H51.7285C51.651 12.008 51.4491 11.7368 51.1226 11.5376C50.7961 11.3384 50.3893 11.2388 49.9023 11.2388C49.3988 11.2388 48.9837 11.3494 48.6572 11.5708C48.3307 11.7866 48.1675 12.0633 48.1675 12.4009C48.1675 12.8713 48.5576 13.231 49.3379 13.48L50.6411 13.9282C51.3882 14.1717 51.9305 14.4871 52.2681 14.8745C52.6056 15.2563 52.7744 15.7461 52.7744 16.3438C52.7744 17.1738 52.423 17.8545 51.7202 18.3857C51.0229 18.9115 50.1265 19.1743 49.0308 19.1743C47.9793 19.1743 47.1133 18.9281 46.4326 18.4355C45.7575 17.943 45.3923 17.2983 45.3369 16.5015ZM54.4097 19L57.0825 6.43262H58.8921L56.2275 19H54.4097ZM62.3203 17.6636C62.929 17.6636 63.4686 17.4893 63.939 17.1406C64.4149 16.7865 64.7137 16.3438 64.8354 15.8125L65.043 14.8828L62.8433 14.9824C62.1792 15.0101 61.659 15.154 61.2827 15.4141C60.9119 15.6686 60.7266 16.0062 60.7266 16.4268C60.7266 16.7865 60.8732 17.0825 61.1665 17.3149C61.4653 17.5474 61.8499 17.6636 62.3203 17.6636ZM61.6646 19.1494C60.8843 19.1494 60.234 18.9142 59.7139 18.4438C59.1937 17.9679 58.9336 17.3758 58.9336 16.6675C58.9336 15.7655 59.2739 15.0516 59.9546 14.5259C60.6408 14.0002 61.612 13.7152 62.8682 13.6709L65.3169 13.5713L65.4414 12.9819C65.4746 12.8104 65.4912 12.6831 65.4912 12.6001C65.4912 12.2072 65.3335 11.9001 65.0181 11.6787C64.7026 11.4518 64.2682 11.3384 63.7148 11.3384C63.2555 11.3384 62.8654 11.4242 62.5444 11.5957C62.229 11.7617 62.0049 12.0052 61.8721 12.3262H60.0874C60.2811 11.5459 60.7183 10.9289 61.3989 10.4751C62.0796 10.0158 62.8986 9.78613 63.856 9.78613C64.8853 9.78613 65.7126 10.0241 66.3379 10.5C66.9632 10.9704 67.2759 11.5957 67.2759 12.376C67.2759 12.6305 67.251 12.874 67.2012 13.1064L65.9561 19H64.2212L64.4702 17.8462H64.3291C64.0303 18.2502 63.6457 18.5684 63.1753 18.8008C62.7049 19.0332 62.2013 19.1494 61.6646 19.1494ZM71.833 19.0498C71.1357 19.0498 70.5768 18.8893 70.1562 18.5684C69.7412 18.2419 69.5337 17.7798 69.5337 17.1821C69.5337 16.9552 69.5641 16.6951 69.625 16.4019L70.6875 11.5044H69.1934L69.5005 10.002H70.9946L71.4678 7.71094H73.269L72.7793 10.002H74.7881L74.4727 11.5044H72.4805L71.5176 15.9453C71.4622 16.1999 71.4346 16.4295 71.4346 16.6343C71.4346 17.2264 71.7943 17.5225 72.5137 17.5225C72.7793 17.5225 73.0007 17.5114 73.1777 17.4893L72.8789 18.9585C72.641 19.0194 72.2923 19.0498 71.833 19.0498ZM79.1128 19.1743C78.3934 19.1743 77.7515 19.0277 77.187 18.7344C76.6226 18.4411 76.1715 18.0011 75.834 17.4146C75.4964 16.828 75.3276 16.139 75.3276 15.3477C75.3276 13.693 75.7703 12.3538 76.6558 11.3301C77.5412 10.3008 78.6867 9.78613 80.0923 9.78613C81.1105 9.78613 81.9572 10.1209 82.6323 10.7905C83.313 11.4601 83.6561 12.3621 83.6616 13.4966C83.6616 13.9282 83.6229 14.3986 83.5454 14.9077H77.1123C77.1068 14.9852 77.104 15.1069 77.104 15.2729C77.104 16.0477 77.3115 16.6315 77.7266 17.0244C78.1416 17.4173 78.6424 17.6138 79.229 17.6138C80.2528 17.6138 80.95 17.2651 81.3208 16.5679H83.1304C82.9312 17.3426 82.4746 17.9707 81.7607 18.4521C81.0469 18.9336 80.1642 19.1743 79.1128 19.1743ZM77.3281 13.5962H81.8687C81.8853 13.4966 81.8936 13.3776 81.8936 13.2393C81.8936 12.6859 81.722 12.2266 81.3789 11.8613C81.0413 11.4906 80.5737 11.3052 79.9761 11.3052C79.3452 11.3052 78.7946 11.5127 78.3242 11.9277C77.8538 12.3428 77.5218 12.8989 77.3281 13.5962Z" fill="white"/>
</svg>

