<svg width="120" height="27" viewBox="0 0 120 27" fill="none" xmlns="http://www.w3.org/2000/svg">
<rect width="120" height="25" rx="7.36884" fill="#CFCFCF"/>
<path d="M12.553 19.748C12.553 19.6007 12.5247 19.527 12.468 19.527L12.077 19.714C12.077 19.6347 12.0317 19.578 11.941 19.544L11.805 19.527C11.7143 19.527 11.601 19.5667 11.465 19.646C11.4423 19.5893 11.414 19.5327 11.38 19.476C11.346 19.4193 11.3177 19.3683 11.295 19.323C11.1477 19.0397 11.0003 18.728 10.853 18.388C10.717 18.0367 10.5867 17.7023 10.462 17.385C10.3487 17.0677 10.258 16.8183 10.19 16.637C10.1447 16.4897 10.0937 16.2687 10.037 15.974C9.98033 15.6793 9.92367 15.3053 9.867 14.852C9.99167 14.9313 10.088 14.971 10.156 14.971C10.2353 14.971 10.309 14.852 10.377 14.614C10.411 14.6593 10.4733 14.682 10.564 14.682C10.632 14.682 10.683 14.6593 10.717 14.614L10.989 14.206L11.295 14.308H11.312C11.3347 14.308 11.3573 14.2967 11.38 14.274C11.4027 14.2513 11.4367 14.2287 11.482 14.206C11.5727 14.1493 11.6407 14.121 11.686 14.121L11.737 14.138C12.0203 14.274 12.2017 14.5233 12.281 14.886C12.485 15.7473 12.689 16.178 12.893 16.178C13.097 16.178 13.335 15.9627 13.607 15.532C13.743 15.3167 13.879 15.0673 14.015 14.784C14.1623 14.5007 14.3097 14.1833 14.457 13.832C14.4797 13.968 14.5023 14.036 14.525 14.036C14.5817 14.036 14.678 13.8943 14.814 13.611C14.9613 13.3277 15.1937 12.9367 15.511 12.438C15.6923 12.132 15.919 11.7863 16.191 11.401C16.4743 11.0157 16.7747 10.619 17.092 10.211C17.4093 9.803 17.7153 9.41767 18.01 9.055C18.316 8.69233 18.588 8.38067 18.826 8.12C19.064 7.85933 19.2397 7.68933 19.353 7.61C19.7837 7.31533 20.1237 7.032 20.373 6.76C20.3617 6.83933 20.3447 6.913 20.322 6.981C20.3107 7.03767 20.305 7.07733 20.305 7.1C20.305 7.14533 20.3277 7.168 20.373 7.168L20.849 6.93V6.998C20.849 7.08867 20.8717 7.134 20.917 7.134C20.951 7.134 21.019 7.083 21.121 6.981C21.223 6.879 21.2797 6.80533 21.291 6.76L21.257 6.998L21.835 6.658L21.699 6.964C21.8803 6.83933 22.0107 6.777 22.09 6.777C22.1353 6.777 22.1693 6.80533 22.192 6.862C22.2147 6.90733 22.226 6.95267 22.226 6.998C22.226 7.066 22.1977 7.14533 22.141 7.236C22.0843 7.32667 22.0107 7.43433 21.92 7.559C21.852 7.64967 21.7387 7.78567 21.58 7.967C21.4327 8.137 21.206 8.392 20.9 8.732C20.594 9.06067 20.186 9.51967 19.676 10.109C19.54 10.2563 19.3303 10.517 19.047 10.891C18.7637 11.2537 18.4407 11.6787 18.078 12.166C17.7267 12.642 17.3753 13.1237 17.024 13.611C16.6727 14.0983 16.361 14.5403 16.089 14.937C15.817 15.3223 15.6243 15.6113 15.511 15.804L14.457 17.589C14.2303 17.9743 14.0433 18.2917 13.896 18.541C13.7487 18.779 13.6353 18.9433 13.556 19.034C13.386 19.238 13.199 19.4193 12.995 19.578L12.842 19.493L12.706 19.578L12.553 19.748ZM28.9468 19H27.0542L29.2622 8.71533H25.5103L25.8506 7.02197H35.2388L34.8984 8.71533H31.1465L28.9468 19ZM33.811 19L35.7368 9.96045H37.4634L37.2144 11.1475H37.3555C37.9144 10.2565 38.6974 9.81104 39.7046 9.81104C40.2082 9.81104 40.5734 9.86084 40.8003 9.96045L40.4268 11.7036C40.0726 11.5929 39.6659 11.5376 39.2065 11.5376C38.5314 11.5376 37.9891 11.723 37.5796 12.0938C37.1756 12.4645 36.8879 13.0373 36.7163 13.812L35.6123 19H33.811ZM44.0791 17.6636C44.6878 17.6636 45.2274 17.4893 45.6978 17.1406C46.1737 16.7865 46.4725 16.3438 46.5942 15.8125L46.8018 14.8828L44.6021 14.9824C43.938 15.0101 43.4178 15.154 43.0415 15.4141C42.6707 15.6686 42.4854 16.0062 42.4854 16.4268C42.4854 16.7865 42.632 17.0825 42.9253 17.3149C43.2241 17.5474 43.6087 17.6636 44.0791 17.6636ZM43.4233 19.1494C42.6431 19.1494 41.9928 18.9142 41.4727 18.4438C40.9525 17.9679 40.6924 17.3758 40.6924 16.6675C40.6924 15.7655 41.0327 15.0516 41.7134 14.5259C42.3996 14.0002 43.3708 13.7152 44.627 13.6709L47.0757 13.5713L47.2002 12.9819C47.2334 12.8104 47.25 12.6831 47.25 12.6001C47.25 12.2072 47.0923 11.9001 46.7769 11.6787C46.4614 11.4518 46.027 11.3384 45.4736 11.3384C45.0143 11.3384 44.6242 11.4242 44.3032 11.5957C43.9878 11.7617 43.7637 12.0052 43.6309 12.3262H41.8462C42.0399 11.5459 42.4771 10.9289 43.1577 10.4751C43.8384 10.0158 44.6574 9.78613 45.6147 9.78613C46.644 9.78613 47.4714 10.0241 48.0967 10.5C48.722 10.9704 49.0347 11.5957 49.0347 12.376C49.0347 12.6305 49.0098 12.874 48.96 13.1064L47.7148 19H45.98L46.229 17.8462H46.0879C45.7891 18.2502 45.4045 18.5684 44.9341 18.8008C44.4637 19.0332 43.9601 19.1494 43.4233 19.1494ZM50.1885 19L52.106 9.96045H53.8408L53.5503 11.3467H53.6831C54.3693 10.3229 55.2852 9.81104 56.4307 9.81104C57.2663 9.81104 57.9331 10.0684 58.4312 10.583C58.9292 11.0977 59.1782 11.734 59.1782 12.4922C59.1782 12.8076 59.1395 13.159 59.062 13.5464L57.9082 19H56.1069L57.2026 13.8618C57.269 13.563 57.3022 13.2974 57.3022 13.0649C57.3022 12.5669 57.1501 12.1685 56.8457 11.8696C56.5469 11.5708 56.1263 11.4214 55.584 11.4214C54.9642 11.4214 54.4385 11.6206 54.0068 12.019C53.5807 12.4175 53.2957 12.9349 53.1519 13.5713L51.9897 19H50.1885ZM60.4316 16.5015H62.2163C62.3159 16.8667 62.5373 17.1628 62.8804 17.3896C63.229 17.6165 63.6579 17.73 64.167 17.73C64.7259 17.73 65.1797 17.6193 65.5283 17.3979C65.877 17.1711 66.0513 16.8778 66.0513 16.5181C66.0513 16.2746 65.971 16.0671 65.8105 15.8955C65.6501 15.7184 65.3789 15.569 64.9971 15.4473L63.6108 14.9824C62.897 14.7445 62.3657 14.4346 62.0171 14.0527C61.674 13.6654 61.5024 13.1756 61.5024 12.5835C61.5024 11.7534 61.8317 11.0811 62.4902 10.5664C63.1488 10.0462 63.9899 9.78613 65.0137 9.78613C66.0098 9.78613 66.8205 10.0186 67.4458 10.4834C68.0711 10.9482 68.4336 11.5708 68.5332 12.3511H66.8232C66.7458 12.008 66.5438 11.7368 66.2173 11.5376C65.8908 11.3384 65.484 11.2388 64.9971 11.2388C64.4935 11.2388 64.0785 11.3494 63.752 11.5708C63.4255 11.7866 63.2622 12.0633 63.2622 12.4009C63.2622 12.8713 63.6523 13.231 64.4326 13.48L65.7358 13.9282C66.4829 14.1717 67.0252 14.4871 67.3628 14.8745C67.7004 15.2563 67.8691 15.7461 67.8691 16.3438C67.8691 17.1738 67.5177 17.8545 66.8149 18.3857C66.1177 18.9115 65.2212 19.1743 64.1255 19.1743C63.0741 19.1743 62.208 18.9281 61.5273 18.4355C60.8522 17.943 60.487 17.2983 60.4316 16.5015ZM69.5044 19L72.1772 6.43262H73.9868L71.3223 19H69.5044ZM77.415 17.6636C78.0238 17.6636 78.5633 17.4893 79.0337 17.1406C79.5096 16.7865 79.8084 16.3438 79.9302 15.8125L80.1377 14.8828L77.938 14.9824C77.2739 15.0101 76.7537 15.154 76.3774 15.4141C76.0067 15.6686 75.8213 16.0062 75.8213 16.4268C75.8213 16.7865 75.9679 17.0825 76.2612 17.3149C76.5601 17.5474 76.9447 17.6636 77.415 17.6636ZM76.7593 19.1494C75.979 19.1494 75.3288 18.9142 74.8086 18.4438C74.2884 17.9679 74.0283 17.3758 74.0283 16.6675C74.0283 15.7655 74.3687 15.0516 75.0493 14.5259C75.7355 14.0002 76.7067 13.7152 77.9629 13.6709L80.4116 13.5713L80.5361 12.9819C80.5693 12.8104 80.5859 12.6831 80.5859 12.6001C80.5859 12.2072 80.4282 11.9001 80.1128 11.6787C79.7974 11.4518 79.363 11.3384 78.8096 11.3384C78.3503 11.3384 77.9601 11.4242 77.6392 11.5957C77.3237 11.7617 77.0996 12.0052 76.9668 12.3262H75.1821C75.3758 11.5459 75.813 10.9289 76.4937 10.4751C77.1743 10.0158 77.9933 9.78613 78.9507 9.78613C79.98 9.78613 80.8073 10.0241 81.4326 10.5C82.0579 10.9704 82.3706 11.5957 82.3706 12.376C82.3706 12.6305 82.3457 12.874 82.2959 13.1064L81.0508 19H79.3159L79.5649 17.8462H79.4238C79.125 18.2502 78.7404 18.5684 78.27 18.8008C77.7996 19.0332 77.2961 19.1494 76.7593 19.1494ZM86.9277 19.0498C86.2305 19.0498 85.6715 18.8893 85.251 18.5684C84.8359 18.2419 84.6284 17.7798 84.6284 17.1821C84.6284 16.9552 84.6589 16.6951 84.7197 16.4019L85.7822 11.5044H84.2881L84.5952 10.002H86.0894L86.5625 7.71094H88.3638L87.874 10.002H89.8828L89.5674 11.5044H87.5752L86.6123 15.9453C86.557 16.1999 86.5293 16.4295 86.5293 16.6343C86.5293 17.2264 86.889 17.5225 87.6084 17.5225C87.874 17.5225 88.0954 17.5114 88.2725 17.4893L87.9736 18.9585C87.7357 19.0194 87.387 19.0498 86.9277 19.0498ZM94.2075 19.1743C93.4881 19.1743 92.8462 19.0277 92.2817 18.7344C91.7173 18.4411 91.2663 18.0011 90.9287 17.4146C90.5911 16.828 90.4224 16.139 90.4224 15.3477C90.4224 13.693 90.8651 12.3538 91.7505 11.3301C92.6359 10.3008 93.7814 9.78613 95.187 9.78613C96.2052 9.78613 97.0519 10.1209 97.7271 10.7905C98.4077 11.4601 98.7508 12.3621 98.7563 13.4966C98.7563 13.9282 98.7176 14.3986 98.6401 14.9077H92.207C92.2015 14.9852 92.1987 15.1069 92.1987 15.2729C92.1987 16.0477 92.4062 16.6315 92.8213 17.0244C93.2363 17.4173 93.7371 17.6138 94.3237 17.6138C95.3475 17.6138 96.0448 17.2651 96.4155 16.5679H98.2251C98.0259 17.3426 97.5693 17.9707 96.8555 18.4521C96.1416 18.9336 95.259 19.1743 94.2075 19.1743ZM92.4229 13.5962H96.9634C96.98 13.4966 96.9883 13.3776 96.9883 13.2393C96.9883 12.6859 96.8167 12.2266 96.4736 11.8613C96.1361 11.4906 95.6685 11.3052 95.0708 11.3052C94.4399 11.3052 93.8893 11.5127 93.4189 11.9277C92.9486 12.3428 92.6165 12.8989 92.4229 13.5962ZM103.604 19.1494C102.68 19.1494 101.911 18.8229 101.296 18.1699C100.682 17.5114 100.375 16.637 100.375 15.5469C100.375 14.4622 100.58 13.48 100.989 12.6001C101.399 11.7202 101.955 11.0368 102.658 10.5498C103.366 10.0573 104.146 9.81104 104.999 9.81104C105.652 9.81104 106.219 9.97428 106.7 10.3008C107.182 10.6273 107.5 11.0506 107.655 11.5708H107.796L108.883 6.43262H110.693L108.02 19H106.293L106.559 17.7549H106.418C106.091 18.1921 105.682 18.5352 105.189 18.7842C104.702 19.0277 104.174 19.1494 103.604 19.1494ZM104.285 17.5557C105.137 17.5557 105.854 17.1794 106.435 16.4268C107.021 15.6742 107.314 14.7555 107.314 13.6709C107.314 12.9736 107.126 12.4258 106.75 12.0273C106.374 11.6289 105.87 11.4297 105.239 11.4297C104.387 11.4297 103.673 11.7922 103.098 12.5171C102.522 13.2365 102.234 14.1468 102.234 15.248C102.234 15.9398 102.423 16.4987 102.799 16.9248C103.181 17.3454 103.676 17.5557 104.285 17.5557Z" fill="white"/>
</svg>
